<?xml version="1.0" standalone="no"?>
<!DOCTYPE svg PUBLIC "-//W3C//DTD SVG 20010904//EN"
 "http://www.w3.org/TR/2001/REC-SVG-20010904/DTD/svg10.dtd">
<svg version="1.0" xmlns="http://www.w3.org/2000/svg"
 width="4096.000000pt" height="2488.000000pt" viewBox="0 0 4096.000000 2488.000000"
 preserveAspectRatio="xMidYMid meet">

<g transform="translate(0.000000,2488.000000) scale(0.100000,-0.100000)"
fill="#000000" stroke="none">
<path d="M16905 18674 c-731 -55 -1421 -338 -1980 -814 -95 -81 -318 -306
-402 -405 -373 -440 -633 -990 -742 -1566 -48 -250 -55 -333 -55 -639 0 -306
7 -388 55 -640 108 -577 367 -1119 752 -1575 91 -109 344 -358 447 -441 513
-415 1056 -648 1745 -750 173 -26 679 -26 850 -1 440 66 765 166 1110 340 355
179 623 376 914 671 l153 156 1599 0 1599 0 168 -168 c484 -488 1047 -799
1712 -946 257 -57 390 -70 720 -70 318 -1 407 7 655 55 960 189 1783 766 2292
1609 320 528 485 1129 485 1760 0 915 -349 1763 -992 2410 -331 334 -669 565
-1086 743 -303 130 -553 198 -929 254 -172 25 -667 25 -845 0 -666 -95 -1222
-330 -1715 -726 -131 -105 -371 -334 -450 -430 l-50 -60 -1560 0 -1561 0 -99
110 c-430 476 -980 819 -1604 999 -304 87 -532 120 -876 124 -143 2 -282 2
-310 0z m510 -929 c325 -37 577 -110 857 -250 694 -347 1198 -1007 1341 -1760
35 -178 42 -266 42 -485 0 -219 -7 -307 -42 -485 -125 -656 -524 -1246 -1094
-1618 -317 -207 -631 -324 -1029 -384 -142 -21 -510 -24 -645 -5 -571 82
-1044 309 -1439 692 -411 398 -662 898 -743 1477 -20 148 -23 469 -4 613 74
583 311 1070 720 1481 329 330 690 537 1150 660 266 71 605 96 886 64z m8395
0 c594 -64 1107 -310 1522 -728 381 -384 618 -855 704 -1402 14 -83 18 -172
18 -365 0 -256 -9 -349 -48 -530 -137 -632 -518 -1192 -1051 -1549 -90 -61
-130 -85 -245 -148 -44 -25 -217 -103 -250 -114 -14 -4 -50 -17 -80 -28 -115
-44 -333 -95 -525 -123 -119 -17 -483 -17 -605 0 -654 92 -1193 382 -1606 865
-640 747 -781 1807 -358 2702 192 408 499 762 881 1015 487 324 1070 467 1643
405z m-3221 -2259 c8 -9 11 -118 9 -382 l-3 -369 -1204 -3 c-881 -1 -1207 1
-1217 9 -11 9 -14 81 -14 375 0 335 1 364 18 373 11 7 418 10 1208 11 996 0
1193 -2 1203 -14z"/>
<path d="M20197 15468 c-16 -12 -17 -43 -15 -363 l3 -350 1195 0 1195 0 3 349
c2 249 -1 353 -9 362 -16 20 -2346 21 -2372 2z m1121 -220 c13 -13 18 -232 6
-262 -5 -14 -54 -16 -445 -16 l-439 0 0 138 c0 76 3 142 7 145 3 4 198 7 433
7 318 0 429 -3 438 -12z m1017 -133 l0 -140 -438 0 -438 0 0 132 c0 73 3 137
6 143 4 7 153 9 438 8 l432 -3 0 -140z"/>
<path d="M39445 10939 c-93 -4 -321 -12 -505 -18 -402 -13 -813 -27 -1200 -41
-157 -6 -427 -15 -600 -20 -173 -5 -381 -12 -462 -16 l-148 -7 -23 -81 c-14
-44 -38 -130 -56 -191 -17 -60 -48 -171 -70 -245 -21 -74 -41 -144 -44 -155
-3 -11 -103 -360 -222 -775 -119 -415 -221 -768 -225 -785 -4 -16 -36 -127
-70 -245 -34 -118 -66 -228 -70 -245 -4 -16 -36 -127 -70 -245 -34 -118 -66
-228 -70 -245 -4 -16 -42 -149 -85 -295 -42 -146 -85 -296 -96 -335 -11 -38
-26 -92 -33 -120 -8 -27 -62 -216 -121 -420 -59 -203 -113 -395 -121 -425 -8
-30 -28 -98 -43 -150 -16 -52 -45 -152 -65 -222 -20 -71 -52 -185 -72 -255
-20 -71 -49 -171 -64 -223 -15 -52 -30 -104 -33 -115 -2 -11 -39 -139 -81
-285 -42 -146 -85 -298 -97 -338 -12 -40 -19 -75 -17 -77 2 -2 103 0 223 5
121 5 366 14 545 20 321 10 626 20 1200 40 162 5 511 17 775 26 l480 16 240
191 c132 105 363 287 512 405 l273 215 24 81 c30 103 266 931 276 971 4 17 42
149 85 295 42 146 77 272 78 280 0 8 -124 180 -276 382 -153 202 -280 374
-283 382 -6 17 -34 -7 586 505 96 80 222 183 279 230 193 160 172 128 236 361
31 113 74 266 95 340 20 74 59 212 85 305 25 94 58 208 71 255 29 101 38 133
99 352 l46 168 -163 217 c-90 120 -219 291 -286 381 l-123 162 -72 -1 c-40 -1
-148 -6 -242 -10z m-925 -1642 c0 -2 -18 -57 -39 -123 -21 -65 -80 -246 -131
-401 l-92 -283 -101 0 c-56 0 -231 -5 -389 -12 -159 -6 -291 -8 -295 -5 -7 7
2 46 97 412 34 132 70 272 80 310 l17 70 59 7 c75 10 794 32 794 25z m-730
-2437 c0 -9 -30 -127 -121 -480 -22 -85 -49 -188 -60 -229 -10 -41 -20 -76
-22 -78 -9 -9 -826 -37 -835 -28 -3 2 38 136 91 297 53 161 111 340 129 398
l34 105 225 7 c123 4 253 9 289 11 148 8 270 7 270 -3z"/>
<path d="M34845 10785 c-557 -19 -1020 -37 -1020 -38 -1 -1 -20 -72 -44 -157
-45 -160 -71 -251 -136 -475 -21 -71 -41 -143 -45 -160 -4 -16 -56 -196 -115
-400 -59 -203 -111 -383 -115 -400 -4 -16 -54 -190 -110 -385 -56 -195 -104
-364 -107 -375 -3 -11 -18 -63 -33 -115 -16 -52 -35 -120 -43 -150 -14 -53
-164 -578 -246 -860 -95 -327 -259 -899 -276 -965 -49 -179 -115 -399 -122
-405 -9 -9 -822 -35 -830 -26 -5 5 60 241 176 641 21 72 50 175 66 230 15 55
33 120 41 145 15 47 143 490 151 525 3 11 16 56 29 100 13 44 32 112 42 150
19 68 124 436 178 620 15 50 30 104 34 120 11 42 276 969 295 1030 18 56 223
774 235 820 4 17 35 126 69 244 34 117 60 215 57 218 -4 5 -340 -5 -931 -27
-143 -5 -353 -13 -467 -16 l-207 -7 -19 -66 c-11 -36 -38 -131 -60 -211 -77
-276 -184 -656 -227 -805 -23 -82 -68 -242 -100 -355 -31 -113 -68 -241 -80
-285 -13 -44 -58 -204 -100 -355 -42 -151 -101 -360 -131 -465 -29 -104 -66
-233 -80 -285 -15 -52 -39 -138 -54 -190 -15 -52 -54 -187 -85 -300 -32 -113
-68 -241 -80 -285 -13 -44 -45 -156 -70 -250 -26 -93 -60 -213 -75 -265 -15
-52 -40 -140 -55 -195 -15 -55 -40 -143 -55 -195 -15 -52 -54 -187 -85 -300
-53 -188 -89 -315 -204 -721 -22 -81 -41 -152 -41 -158 0 -6 73 -105 162 -219
89 -114 220 -282 292 -375 l130 -167 76 0 c42 0 180 4 306 10 126 5 371 14
544 20 1163 36 1462 49 1482 63 9 7 103 80 210 163 106 82 299 233 428 333
433 337 386 295 408 370 11 36 52 179 92 316 40 138 96 331 125 430 29 99 74
254 100 345 44 151 75 258 215 740 26 91 73 255 105 365 32 110 81 281 110
380 29 99 81 277 115 395 34 118 84 289 110 380 26 91 76 262 110 380 35 118
80 276 102 350 22 74 46 158 53 185 8 28 39 133 69 235 104 360 233 804 275
950 12 41 28 96 36 123 l14 47 -117 -2 c-64 0 -279 -7 -477 -13z"/>
<path d="M30389 10636 c-2 -2 -175 -9 -384 -15 -521 -17 -1127 -40 -1130 -43
-1 -2 -95 -316 -209 -698 -217 -726 -232 -776 -246 -825 -19 -62 -71 -239
-148 -495 -44 -146 -89 -297 -101 -336 l-21 -71 -227 -6 c-126 -4 -302 -10
-392 -14 l-164 -6 5 29 c3 16 20 81 38 144 18 63 36 129 40 145 4 17 74 269
155 560 81 292 151 544 155 560 4 17 19 71 33 120 27 96 64 230 77 280 4 17
42 153 84 303 42 150 76 278 76 284 0 6 -18 8 -47 4 -27 -3 -201 -10 -388 -16
-381 -11 -833 -27 -1032 -36 l-132 -6 -24 -82 c-24 -78 -90 -307 -164 -566
-20 -69 -53 -183 -73 -255 -21 -71 -59 -204 -85 -295 -26 -91 -64 -223 -85
-295 -21 -71 -40 -139 -43 -150 -2 -11 -40 -139 -82 -285 -43 -146 -81 -278
-85 -295 -4 -16 -61 -212 -125 -435 -65 -223 -121 -418 -125 -435 -4 -16 -42
-149 -85 -295 -43 -146 -81 -278 -85 -295 -4 -16 -42 -149 -85 -295 -43 -146
-81 -278 -85 -295 -4 -16 -60 -212 -125 -435 -64 -223 -121 -418 -125 -435 -4
-16 -42 -149 -85 -295 -42 -146 -85 -294 -95 -330 -10 -36 -59 -208 -109 -384
-51 -175 -91 -319 -89 -321 2 -1 170 4 373 11 204 7 523 17 710 23 441 15 526
20 530 34 2 7 15 53 30 102 14 50 35 119 45 155 29 97 348 1178 364 1230 7 25
71 241 141 480 71 239 131 438 134 442 7 7 770 32 778 25 3 -3 -46 -189 -108
-414 -62 -224 -118 -428 -125 -453 -7 -25 -27 -97 -44 -160 -18 -63 -36 -128
-40 -145 -4 -16 -56 -203 -115 -415 -59 -212 -115 -416 -126 -455 -37 -134
-47 -171 -73 -262 -14 -51 -26 -97 -26 -102 0 -14 124 -14 425 -1 127 5 381
14 565 20 184 5 399 13 476 16 l142 7 36 126 c44 158 158 555 255 891 21 74
41 144 44 155 2 11 53 187 112 390 59 204 113 395 121 425 8 30 28 98 43 150
16 52 48 163 71 245 23 83 54 193 69 245 61 207 85 288 101 350 10 36 60 214
112 395 53 182 98 339 101 350 2 11 71 250 152 530 81 281 151 524 155 540 4
17 36 127 70 245 34 118 65 224 67 235 3 11 22 79 43 150 21 72 40 139 43 150
5 21 144 505 227 794 16 57 30 105 30 107 0 5 -85 5 -91 0z"/>
<path d="M23060 10389 c-595 -21 -1170 -40 -1575 -54 -247 -8 -574 -19 -725
-25 -151 -5 -361 -12 -465 -16 l-190 -6 -97 -77 c-53 -42 -136 -107 -185 -145
-48 -39 -176 -140 -283 -225 -107 -85 -224 -177 -260 -206 -36 -28 -95 -75
-133 -105 l-67 -54 -29 -95 c-16 -53 -45 -153 -65 -223 -44 -158 -87 -306
-172 -603 -37 -126 -69 -239 -72 -250 -2 -11 -65 -231 -139 -490 -75 -258
-138 -479 -141 -490 -2 -11 -65 -231 -139 -490 -74 -258 -138 -483 -143 -500
-4 -16 -118 -419 -254 -894 -136 -475 -245 -869 -243 -875 3 -6 63 -88 134
-182 357 -474 425 -564 431 -568 7 -4 269 4 1137 34 165 5 433 14 595 20 162
6 507 17 765 25 546 17 727 24 732 28 3 4 79 266 113 387 18 67 129 454 176
615 15 50 30 104 34 120 4 17 38 133 74 259 37 126 64 231 62 233 -2 3 -222
-2 -488 -11 -936 -31 -1376 -46 -1632 -56 -143 -5 -262 -7 -266 -5 -4 3 -1 28
7 57 31 118 166 646 175 686 7 30 17 46 31 51 12 5 249 16 527 25 1281 42
1912 64 1915 68 2 3 105 358 131 453 7 28 85 300 173 605 87 305 158 556 156
558 -1 1 -137 -2 -301 -8 -743 -25 -917 -31 -1349 -45 -253 -8 -536 -17 -629
-21 l-169 -6 7 29 c17 69 250 769 258 774 5 3 111 9 236 12 125 4 425 14 667
22 858 29 1023 35 1253 41 225 7 234 8 242 28 7 19 22 72 96 336 15 52 39 138
54 190 15 52 35 122 43 155 25 92 67 240 97 345 15 52 53 187 85 300 31 113
60 218 65 234 12 35 6 47 -23 44 -12 -1 -119 -5 -237 -9z"/>
<path d="M17135 10190 c-453 -16 -867 -30 -1013 -36 l-153 -6 -122 -96 c-134
-105 -204 -160 -347 -273 -298 -236 -561 -439 -568 -439 -5 0 -136 169 -292
375 l-283 375 -106 0 c-58 0 -223 -5 -366 -10 -143 -5 -411 -14 -595 -20 -184
-6 -385 -13 -447 -16 l-111 -6 -79 -62 c-43 -34 -215 -170 -383 -301 -566
-443 -580 -454 -580 -474 0 -10 -6 -37 -14 -62 -8 -24 -40 -136 -71 -249 -32
-113 -68 -241 -80 -285 -13 -44 -44 -156 -70 -250 -26 -93 -59 -213 -75 -265
-15 -52 -46 -165 -70 -250 -23 -85 -53 -191 -65 -235 -13 -44 -58 -204 -100
-355 -42 -151 -87 -311 -100 -355 -12 -44 -44 -156 -70 -250 -25 -93 -57 -206
-70 -250 -29 -101 -109 -386 -175 -625 -28 -102 -57 -205 -65 -230 -7 -25 -25
-90 -40 -145 -15 -55 -40 -143 -55 -195 -15 -52 -40 -140 -55 -195 -15 -55
-32 -120 -40 -145 -28 -99 -111 -394 -140 -500 -10 -36 -30 -108 -45 -160 -15
-52 -39 -138 -54 -190 -14 -52 -46 -165 -70 -250 -24 -85 -47 -170 -51 -189
l-7 -33 203 6 c112 4 312 11 444 16 132 5 400 15 595 21 195 6 356 12 357 13
2 2 151 516 163 561 9 35 164 573 275 955 43 146 81 279 85 295 4 17 42 149
85 295 43 146 81 279 85 295 4 17 42 149 85 295 42 146 96 335 120 420 24 85
51 178 59 205 16 51 71 241 127 440 17 61 37 128 44 150 7 22 32 108 55 190
24 83 60 209 80 280 21 72 59 204 86 295 26 91 50 168 53 171 7 8 769 34 776
27 6 -6 -7 -57 -70 -273 -26 -88 -51 -173 -55 -190 -4 -16 -42 -149 -85 -295
-42 -146 -96 -335 -120 -420 -24 -85 -51 -177 -60 -205 -8 -27 -30 -104 -49
-170 -19 -66 -57 -199 -85 -295 -28 -96 -69 -238 -91 -315 -46 -161 -116 -401
-170 -590 -21 -71 -57 -197 -80 -280 -23 -82 -62 -215 -85 -295 -24 -80 -45
-154 -48 -165 -4 -18 -96 -336 -282 -980 -37 -126 -73 -252 -81 -280 -7 -27
-17 -61 -20 -74 l-7 -23 199 6 c109 4 318 11 464 16 297 12 868 30 917 30 29
0 33 4 43 43 10 38 48 168 85 292 23 76 92 317 98 340 2 11 39 139 82 285 43
146 81 279 85 295 4 17 42 149 85 295 42 146 96 335 120 420 24 85 51 178 59
205 9 28 33 111 55 185 21 74 58 200 81 280 24 80 46 159 50 175 4 17 60 212
125 435 64 223 136 475 161 560 24 85 64 225 89 310 25 85 83 286 129 445 l83
290 279 11 c251 11 538 18 556 15 8 -1 -18 -97 -217 -781 -55 -190 -108 -373
-170 -590 -26 -91 -65 -226 -87 -300 -21 -74 -45 -157 -53 -185 -8 -27 -32
-111 -54 -185 -21 -74 -41 -144 -44 -155 -2 -11 -39 -139 -82 -285 -43 -146
-81 -278 -85 -295 -4 -16 -42 -149 -85 -295 -42 -146 -85 -294 -95 -330 -9
-36 -66 -231 -125 -435 -175 -607 -216 -747 -230 -800 -8 -27 -23 -79 -34
-115 -34 -106 -37 -102 82 -95 56 3 253 10 437 16 184 5 454 14 600 19 146 5
308 10 361 10 l97 0 11 48 c13 49 102 369 275 977 84 297 176 623 338 1200 16
61 43 153 58 205 15 52 40 140 55 195 15 55 40 143 55 195 23 79 89 315 156
555 8 28 27 95 43 150 15 55 41 145 56 200 15 55 40 143 55 195 15 52 40 140
55 195 15 55 40 143 55 195 15 52 54 187 85 300 59 211 109 388 235 831 l72
255 -284 377 -283 376 -125 -1 c-69 -1 -219 -4 -335 -8z"/>
<path d="M9970 9949 c-124 -4 -362 -12 -530 -18 -168 -7 -435 -16 -595 -21
-159 -5 -447 -15 -640 -21 l-350 -11 -191 -142 c-105 -77 -351 -260 -546 -406
l-355 -265 -28 -95 c-50 -172 -73 -253 -120 -425 -26 -93 -59 -213 -75 -265
-15 -52 -47 -165 -70 -250 -23 -85 -55 -200 -71 -255 -16 -55 -59 -206 -94
-335 -95 -339 -125 -449 -140 -500 -8 -25 -39 -137 -70 -250 -32 -113 -68
-241 -80 -285 -13 -44 -47 -163 -75 -265 -28 -102 -71 -255 -95 -340 -24 -85
-67 -238 -95 -340 -29 -102 -62 -221 -75 -265 -12 -44 -44 -156 -70 -250 -26
-93 -58 -206 -70 -250 -13 -44 -44 -156 -70 -250 -26 -93 -58 -206 -70 -250
-13 -44 -45 -156 -70 -250 -66 -238 -93 -335 -126 -446 -16 -53 -29 -103 -29
-112 0 -15 14 -16 123 -12 313 13 692 26 1007 35 317 9 470 17 470 24 0 2 13
48 29 102 16 55 31 108 34 119 4 18 93 328 167 585 48 168 161 561 174 610 57
206 59 210 80 215 23 4 636 25 749 25 51 0 67 -3 67 -14 0 -8 -16 -70 -35
-138 -75 -263 -99 -346 -126 -438 -15 -52 -62 -216 -104 -365 -77 -276 -130
-459 -171 -597 l-22 -78 106 0 c59 0 224 5 367 10 143 5 413 14 600 20 187 5
383 13 436 16 l96 6 28 102 c15 55 52 187 81 291 30 105 79 280 110 390 31
110 69 243 84 295 15 52 40 140 55 195 15 55 40 143 55 195 15 52 40 140 55
195 15 55 40 143 55 195 15 52 35 122 44 155 9 33 40 146 70 250 29 105 79
282 111 395 31 113 70 248 85 300 15 52 54 187 85 300 52 184 105 374 195 690
16 58 72 258 125 445 53 187 109 387 125 445 48 167 133 469 189 667 l51 182
-161 213 c-89 117 -217 288 -286 381 -109 145 -129 167 -152 165 -14 0 -127
-4 -251 -9z m-1020 -1658 c0 -5 -43 -179 -96 -387 -52 -209 -144 -572 -204
-807 -59 -235 -109 -430 -111 -432 -3 -3 -309 -14 -762 -28 -74 -2 -78 -1 -74
18 3 11 71 250 152 530 81 281 151 524 155 540 4 17 36 127 70 245 34 118 67
234 72 257 l9 41 82 6 c67 5 358 15 650 24 31 1 57 -2 57 -7z"/>
<path d="M4925 9779 c-115 -4 -363 -12 -550 -19 -187 -6 -459 -15 -605 -20
-146 -5 -368 -12 -495 -15 -126 -3 -263 -8 -303 -11 l-73 -6 -142 -110 c-78
-61 -164 -128 -192 -149 -27 -21 -120 -92 -205 -158 -85 -67 -188 -147 -229
-179 -41 -31 -118 -91 -171 -133 l-97 -77 -23 -83 c-12 -46 -56 -201 -96 -344
-41 -143 -99 -350 -130 -460 -31 -110 -77 -270 -101 -355 -24 -85 -50 -177
-58 -205 -7 -27 -43 -153 -79 -280 -36 -126 -91 -320 -122 -430 -31 -110 -69
-243 -84 -295 -15 -52 -54 -187 -85 -300 -31 -113 -70 -248 -85 -300 -15 -52
-40 -140 -55 -195 -15 -55 -40 -143 -55 -195 -52 -178 -189 -662 -305 -1075
-48 -170 -93 -329 -100 -351 l-13 -41 264 -349 c145 -192 274 -362 286 -378
l23 -28 130 1 c72 1 236 6 365 11 129 6 378 14 552 20 486 15 918 30 1181 40
l238 9 117 92 c64 51 147 117 185 146 37 29 97 77 135 106 177 140 231 182
405 317 201 157 193 146 227 283 10 40 60 223 110 407 51 184 96 349 100 365
21 80 230 849 265 975 63 226 146 542 143 545 -1 1 -120 -1 -263 -6 -448 -15
-857 -28 -1235 -39 -201 -6 -398 -15 -439 -18 l-74 -7 -13 -45 c-7 -25 -33
-121 -59 -215 -26 -93 -58 -206 -70 -250 -34 -118 -75 -269 -75 -275 0 -3 84
-4 186 -2 176 3 186 3 181 -15 -3 -10 -27 -99 -52 -198 -114 -443 -147 -570
-149 -572 -1 -2 -153 -7 -337 -13 -184 -5 -360 -12 -391 -15 -31 -2 -59 -1
-62 3 -3 5 13 73 35 153 52 188 62 225 94 344 15 55 62 231 106 390 43 160 86
317 95 350 9 33 22 80 29 105 7 25 20 72 29 105 9 33 39 143 67 245 28 102 55
199 59 215 12 46 54 204 141 520 43 160 86 317 95 350 9 33 22 80 29 105 7 25
20 72 29 105 61 229 62 230 87 232 75 6 796 25 806 22 8 -3 7 -20 -7 -59 -10
-30 -50 -156 -90 -280 -39 -124 -86 -271 -104 -327 l-33 -103 100 0 c55 0 220
4 366 10 146 5 410 14 586 20 176 5 370 13 431 16 l112 6 36 126 c19 70 64
226 100 347 35 121 93 321 129 445 36 124 97 335 136 469 43 145 68 248 63
255 -5 6 -80 103 -168 216 -88 113 -169 217 -179 231 -11 15 -66 86 -123 158
l-103 131 -82 -2 c-45 0 -176 -5 -292 -9z"/>
</g>
</svg>
